<svg id="Layer_1" data-name="Layer 1" xmlns="http://www.w3.org/2000/svg" viewBox="0 0 100 100"><defs><style>.cls-1{fill:#fd6f00;}</style></defs><path class="cls-1" d="M50,0h0A50,50,0,0,0,0,50H0a50,50,0,0,0,50,50h0a50,50,0,0,0,50-50h0A50,50,0,0,0,50,0ZM44.08,70.82h-11V57.28A5.67,5.67,0,0,0,32,53.59a3.71,3.71,0,0,0-3-1.38,4.32,4.32,0,0,0-3.11,7.24,3.88,3.88,0,0,0,2.9,1.17,5,5,0,0,0,2.67-.76V71.2A15.55,15.55,0,0,1,18,67.09a14.62,14.62,0,0,1-4.39-10.86A14.66,14.66,0,0,1,18,45.44,14.74,14.74,0,0,1,28.81,41q7.1,0,11.18,4.15t4.09,11.32Zm19.14,0h-11v-40h11Zm19.17,0h-11V41.61h11ZM80.88,37.59a6,6,0,0,1-7.88,0,5.19,5.19,0,0,1,.09-7.45,5.52,5.52,0,0,1,7.71,0,5,5,0,0,1,1.62,3.7A4.92,4.92,0,0,1,80.88,37.59Z"/></svg>